<mxfile host="app.diagrams.net" modified="2021-02-08T03:22:49.527Z" agent="5.0 (Macintosh; Intel Mac OS X 10_15_7) AppleWebKit/537.36 (KHTML, like Gecko) Chrome/88.0.4324.146 Safari/537.36" etag="-yrjeFHbTnWZNI_rNbMX" version="14.2.9" type="github">
  <diagram id="pyGN-eEyPUiRJIVcAAuR" name="Page-1">
    <mxGraphModel dx="946" dy="548" grid="1" gridSize="10" guides="1" tooltips="1" connect="1" arrows="1" fold="1" page="1" pageScale="1" pageWidth="3300" pageHeight="4681" math="0" shadow="0">
      <root>
        <mxCell id="0" />
        <mxCell id="1" parent="0" />
        <mxCell id="Cc5adJ6XSfBMr0R2Tor6-2" value="" style="rounded=0;whiteSpace=wrap;html=1;fillColor=#2BD4C4;" parent="1" vertex="1">
          <mxGeometry x="230" y="90" width="880" height="490" as="geometry" />
        </mxCell>
        <mxCell id="Cc5adJ6XSfBMr0R2Tor6-15" value="" style="rounded=0;whiteSpace=wrap;html=1;" parent="1" vertex="1">
          <mxGeometry x="350" y="970" width="655" height="396" as="geometry" />
        </mxCell>
        <mxCell id="Cc5adJ6XSfBMr0R2Tor6-16" value="&lt;font style=&quot;font-size: 14px&quot;&gt;vite 核心能力&lt;/font&gt;" style="ellipse;whiteSpace=wrap;html=1;aspect=fixed;fillColor=#d5e8d4;strokeColor=#82b366;" parent="1" vertex="1">
          <mxGeometry x="630" y="1121" width="100" height="100" as="geometry" />
        </mxCell>
        <mxCell id="Cc5adJ6XSfBMr0R2Tor6-17" value="&lt;font style=&quot;font-size: 13px&quot;&gt;vue 插件&lt;/font&gt;" style="ellipse;whiteSpace=wrap;html=1;aspect=fixed;fillColor=#ffe6cc;strokeColor=#d79b00;" parent="1" vertex="1">
          <mxGeometry x="495" y="1030" width="70" height="70" as="geometry" />
        </mxCell>
        <mxCell id="Cc5adJ6XSfBMr0R2Tor6-18" value="&lt;font style=&quot;font-size: 13px&quot;&gt;react 插件&lt;/font&gt;" style="ellipse;whiteSpace=wrap;html=1;aspect=fixed;fillColor=#e1d5e7;strokeColor=#9673a6;" parent="1" vertex="1">
          <mxGeometry x="494" y="1242" width="70" height="70" as="geometry" />
        </mxCell>
        <mxCell id="Cc5adJ6XSfBMr0R2Tor6-19" value="&lt;font style=&quot;font-size: 13px&quot;&gt;语法转化插件&lt;/font&gt;" style="ellipse;whiteSpace=wrap;html=1;aspect=fixed;fillColor=#f8cecc;strokeColor=#b85450;" parent="1" vertex="1">
          <mxGeometry x="799" y="1247" width="70" height="70" as="geometry" />
        </mxCell>
        <mxCell id="Cc5adJ6XSfBMr0R2Tor6-20" value="&lt;font style=&quot;font-size: 13px&quot;&gt;其他&lt;/font&gt;" style="ellipse;whiteSpace=wrap;html=1;aspect=fixed;fillColor=#dae8fc;strokeColor=#6c8ebf;" parent="1" vertex="1">
          <mxGeometry x="810" y="1031" width="70" height="70" as="geometry" />
        </mxCell>
        <mxCell id="Cc5adJ6XSfBMr0R2Tor6-21" value="" style="shape=flexArrow;endArrow=classic;html=1;exitX=0.043;exitY=0.229;exitDx=0;exitDy=0;exitPerimeter=0;" parent="1" edge="1">
          <mxGeometry width="50" height="50" relative="1" as="geometry">
            <mxPoint x="803.01" y="1264.03" as="sourcePoint" />
            <mxPoint x="715" y="1208" as="targetPoint" />
          </mxGeometry>
        </mxCell>
        <mxCell id="Cc5adJ6XSfBMr0R2Tor6-22" value="" style="shape=flexArrow;endArrow=classic;html=1;entryX=1;entryY=1;entryDx=0;entryDy=0;exitX=0.057;exitY=0.743;exitDx=0;exitDy=0;exitPerimeter=0;" parent="1" edge="1">
          <mxGeometry width="50" height="50" relative="1" as="geometry">
            <mxPoint x="813.99" y="1083.01" as="sourcePoint" />
            <mxPoint x="722.3453390593274" y="1140.9953390593275" as="targetPoint" />
          </mxGeometry>
        </mxCell>
        <mxCell id="Cc5adJ6XSfBMr0R2Tor6-23" value="" style="shape=flexArrow;endArrow=classic;html=1;entryX=0;entryY=1;entryDx=0;entryDy=0;" parent="1" target="Cc5adJ6XSfBMr0R2Tor6-16" edge="1">
          <mxGeometry width="50" height="50" relative="1" as="geometry">
            <mxPoint x="560" y="1260" as="sourcePoint" />
            <mxPoint x="479.9953390593274" y="1194.3253390593275" as="targetPoint" />
          </mxGeometry>
        </mxCell>
        <mxCell id="Cc5adJ6XSfBMr0R2Tor6-24" value="" style="shape=flexArrow;endArrow=classic;html=1;entryX=0.09;entryY=0.2;entryDx=0;entryDy=0;entryPerimeter=0;exitX=1;exitY=1;exitDx=0;exitDy=0;" parent="1" source="Cc5adJ6XSfBMr0R2Tor6-17" target="Cc5adJ6XSfBMr0R2Tor6-16" edge="1">
          <mxGeometry width="50" height="50" relative="1" as="geometry">
            <mxPoint x="565" y="1091.82" as="sourcePoint" />
            <mxPoint x="649.6446609406726" y="1038.1753390593274" as="targetPoint" />
          </mxGeometry>
        </mxCell>
        <mxCell id="Cc5adJ6XSfBMr0R2Tor6-26" value="" style="rounded=0;whiteSpace=wrap;html=1;" parent="1" vertex="1">
          <mxGeometry x="385" y="1456" width="620" height="220" as="geometry" />
        </mxCell>
        <mxCell id="Cc5adJ6XSfBMr0R2Tor6-28" value="" style="rounded=1;whiteSpace=wrap;html=1;fillColor=#c40b0a;" parent="1" vertex="1">
          <mxGeometry x="472.5" y="1521" width="130" height="90" as="geometry" />
        </mxCell>
        <mxCell id="Cc5adJ6XSfBMr0R2Tor6-29" value="&lt;font style=&quot;font-size: 31px&quot; color=&quot;#ffffff&quot;&gt;cac&lt;/font&gt;" style="text;html=1;strokeColor=none;fillColor=none;align=center;verticalAlign=middle;whiteSpace=wrap;rounded=0;" parent="1" vertex="1">
          <mxGeometry x="517.5" y="1555.5" width="40" height="20" as="geometry" />
        </mxCell>
        <mxCell id="Cc5adJ6XSfBMr0R2Tor6-30" value="" style="rounded=1;whiteSpace=wrap;html=1;fillColor=#c40b0a;" parent="1" vertex="1">
          <mxGeometry x="787.5" y="1520" width="125" height="91" as="geometry" />
        </mxCell>
        <mxCell id="Cc5adJ6XSfBMr0R2Tor6-31" value="&lt;font style=&quot;font-size: 31px&quot; color=&quot;#ffffff&quot;&gt;minimist&lt;/font&gt;" style="text;html=1;strokeColor=none;fillColor=none;align=center;verticalAlign=middle;whiteSpace=wrap;rounded=0;" parent="1" vertex="1">
          <mxGeometry x="830" y="1556" width="40" height="20" as="geometry" />
        </mxCell>
        <mxCell id="Cc5adJ6XSfBMr0R2Tor6-32" value="&lt;font style=&quot;font-size: 35px&quot;&gt;������&lt;/font&gt;" style="text;html=1;strokeColor=none;fillColor=none;align=center;verticalAlign=middle;whiteSpace=wrap;rounded=0;" parent="1" vertex="1">
          <mxGeometry x="667.5" y="1545.5" width="50" height="41" as="geometry" />
        </mxCell>
        <mxCell id="YNa5pKUTt9y0_Kpb98YN-3" value="" style="rounded=0;whiteSpace=wrap;html=1;fillColor=#EBBC3B;" vertex="1" parent="1">
          <mxGeometry x="265" y="433.75" width="730" height="120" as="geometry" />
        </mxCell>
        <mxCell id="YNa5pKUTt9y0_Kpb98YN-4" value="&lt;font style=&quot;font-size: 16px&quot;&gt;Node&lt;/font&gt;" style="rounded=1;whiteSpace=wrap;html=1;fillColor=#FFFFFF;" vertex="1" parent="1">
          <mxGeometry x="552.75" y="470" width="151.25" height="47.5" as="geometry" />
        </mxCell>
        <mxCell id="YNa5pKUTt9y0_Kpb98YN-6" value="" style="shape=offPageConnector;whiteSpace=wrap;html=1;fillColor=#EBBC3B;gradientColor=none;direction=north;" vertex="1" parent="1">
          <mxGeometry x="1010" y="433.75" width="70" height="120" as="geometry" />
        </mxCell>
        <mxCell id="YNa5pKUTt9y0_Kpb98YN-7" value="&lt;font style=&quot;font-size: 19px&quot;&gt;系&lt;br&gt;统&lt;br&gt;层&lt;br&gt;&lt;/font&gt;" style="text;html=1;strokeColor=none;fillColor=none;align=center;verticalAlign=middle;whiteSpace=wrap;rounded=0;" vertex="1" parent="1">
          <mxGeometry x="1010" y="480" width="50" height="27.5" as="geometry" />
        </mxCell>
        <mxCell id="YNa5pKUTt9y0_Kpb98YN-10" value="" style="rounded=0;whiteSpace=wrap;html=1;fillColor=#DAE8FC;" vertex="1" parent="1">
          <mxGeometry x="265" y="275" width="730" height="120" as="geometry" />
        </mxCell>
        <mxCell id="YNa5pKUTt9y0_Kpb98YN-11" value="&lt;font style=&quot;font-size: 16px&quot;&gt;enquirer&lt;/font&gt;" style="rounded=1;whiteSpace=wrap;html=1;fillColor=#BFB66D;" vertex="1" parent="1">
          <mxGeometry x="340" y="309" width="151.25" height="47.5" as="geometry" />
        </mxCell>
        <mxCell id="YNa5pKUTt9y0_Kpb98YN-12" value="&lt;font style=&quot;font-size: 16px&quot;&gt;minimist&lt;/font&gt;" style="rounded=1;whiteSpace=wrap;html=1;fillColor=#BFB66D;" vertex="1" parent="1">
          <mxGeometry x="554.38" y="311.25" width="151.25" height="47.5" as="geometry" />
        </mxCell>
        <mxCell id="YNa5pKUTt9y0_Kpb98YN-13" value="&lt;font style=&quot;font-size: 16px&quot;&gt;kolorist&lt;/font&gt;" style="rounded=1;whiteSpace=wrap;html=1;fillColor=#BFB66D;" vertex="1" parent="1">
          <mxGeometry x="769.38" y="311.25" width="151.25" height="47.5" as="geometry" />
        </mxCell>
        <mxCell id="YNa5pKUTt9y0_Kpb98YN-14" value="" style="shape=offPageConnector;whiteSpace=wrap;html=1;gradientColor=none;direction=north;fillColor=#DAE8FC;" vertex="1" parent="1">
          <mxGeometry x="1010" y="275" width="70" height="120" as="geometry" />
        </mxCell>
        <mxCell id="YNa5pKUTt9y0_Kpb98YN-15" value="" style="rounded=0;whiteSpace=wrap;html=1;fillColor=#3191F7;" vertex="1" parent="1">
          <mxGeometry x="265" y="113" width="730" height="120" as="geometry" />
        </mxCell>
        <mxCell id="YNa5pKUTt9y0_Kpb98YN-16" value="" style="shape=offPageConnector;whiteSpace=wrap;html=1;gradientColor=none;direction=north;fillColor=#3191F7;" vertex="1" parent="1">
          <mxGeometry x="1010" y="115" width="70" height="120" as="geometry" />
        </mxCell>
        <mxCell id="YNa5pKUTt9y0_Kpb98YN-17" value="&lt;font style=&quot;font-size: 16px&quot;&gt;命令行终端&lt;/font&gt;" style="rounded=1;whiteSpace=wrap;html=1;fillColor=#26E1FD;" vertex="1" parent="1">
          <mxGeometry x="440" y="147" width="151.25" height="47.5" as="geometry" />
        </mxCell>
        <mxCell id="YNa5pKUTt9y0_Kpb98YN-18" value="&lt;font style=&quot;font-size: 16px&quot;&gt;创建项目&lt;/font&gt;" style="rounded=1;whiteSpace=wrap;html=1;fillColor=#26E1FD;" vertex="1" parent="1">
          <mxGeometry x="667.5" y="149.25" width="151.25" height="47.5" as="geometry" />
        </mxCell>
        <mxCell id="YNa5pKUTt9y0_Kpb98YN-19" value="&lt;font style=&quot;font-size: 19px&quot;&gt;内&lt;br&gt;核&lt;br&gt;层&lt;br&gt;&lt;/font&gt;" style="text;html=1;strokeColor=none;fillColor=none;align=center;verticalAlign=middle;whiteSpace=wrap;rounded=0;" vertex="1" parent="1">
          <mxGeometry x="1010" y="319" width="50" height="27.5" as="geometry" />
        </mxCell>
        <mxCell id="YNa5pKUTt9y0_Kpb98YN-20" value="&lt;font style=&quot;font-size: 19px&quot;&gt;用&lt;br&gt;户&lt;br&gt;层&lt;br&gt;&lt;/font&gt;" style="text;html=1;strokeColor=none;fillColor=none;align=center;verticalAlign=middle;whiteSpace=wrap;rounded=0;" vertex="1" parent="1">
          <mxGeometry x="1010" y="157" width="50" height="27.5" as="geometry" />
        </mxCell>
        <mxCell id="YNa5pKUTt9y0_Kpb98YN-21" value="" style="rounded=0;whiteSpace=wrap;html=1;strokeColor=#000000;gradientColor=none;fillColor=#ffff;" vertex="1" parent="1">
          <mxGeometry x="1110" y="1240" width="720" height="420" as="geometry" />
        </mxCell>
        <mxCell id="YNa5pKUTt9y0_Kpb98YN-22" value="开始" style="rounded=1;whiteSpace=wrap;html=1;strokeColor=#000000;fillColor=#ffff;gradientColor=none;" vertex="1" parent="1">
          <mxGeometry x="1150" y="1300" width="100" height="43" as="geometry" />
        </mxCell>
      </root>
    </mxGraphModel>
  </diagram>
</mxfile>
